# xmcd
#
# Track frame offsets: 
#        150
#        10767
#        31732
#        50345
#        64006
#        83911
#        104834
#        121032
#        142525
#        157812
#        173914
#
# Disc length: 2542 seconds
#
# Revision: 0
# Processed by: cddbd v1.5.2PL0 Copyright (c) Steve Scherf et al.
# Submitted via: ExactAudioCopy v1.0b4
#
DISCID=7a09ec0b
DTITLE=Ana and Milton Popovic - Blue Room
DYEAR=2015
DGENRE=Blues, Blues Rock
TTITLE0=Catfish Blues
TTITLE1=I'm Losing You
TTITLE2=Evening Shadows
TTITLE3=Grant Spivey
TTITLE4=Somebody
TTITLE5=Did Somebody Make A Fool Out Of You
TTITLE6=We Used To Know
TTITLE7=Rainy Night In Georgia
TTITLE8=Red River Blues
TTITLE9=Baby What's Wrong
TTITLE10=Tupelo
EXTD=
EXTT0=
EXTT1=
EXTT2=
EXTT3=
EXTT4=
EXTT5=
EXTT6=
EXTT7=
EXTT8=
EXTT9=
EXTT10=
PLAYORDER=
